<svg xmlns="http://www.w3.org/2000/svg" width="24" height="24" viewBox="0 0 24 24" fill="none">
  <path d="M10 2C10 0.89543 10.8954 0 12 0C13.1046 0 14 0.895431 14 2V22H10V2Z" fill="#FF3D73" fill-opacity="0.6"/>
  <path d="M7.5 20L9 18.5L11 17.5H14L15.5 19L16.5 21L16 23L14.5 22.5L13 21.5L11 22L7.5 22.5V20Z" fill="#FF3D73" fill-opacity="0.6"/>
  <path d="M23.5264 12.09L15.4286 8.04214V3.42857C15.4286 2.51926 15.0673 1.64719 14.4244 1.00421C13.7814 0.361223 12.9093 0 12 0C11.0907 0 10.2186 0.361223 9.57563 1.00421C8.93265 1.64719 8.57143 2.51926 8.57143 3.42857V8.04214L0.473572 12.09C0.331166 12.1613 0.211427 12.2708 0.12778 12.4063C0.0441333 12.5418 -0.000113786 12.6979 2.19752e-07 12.8571V16.2857C7.04417e-05 16.4125 0.0282664 16.5377 0.0825559 16.6523C0.136845 16.7668 0.215876 16.8679 0.313953 16.9483C0.412029 17.0286 0.526709 17.0862 0.649727 17.1169C0.772745 17.1476 0.901037 17.1506 1.02536 17.1257L8.57143 15.6171V17.6454L7.10786 19.1079C7.02828 19.1875 6.96519 19.2821 6.92217 19.3861C6.87915 19.4902 6.85705 19.6017 6.85714 19.7143V23.1429C6.8569 23.2833 6.89119 23.4217 6.957 23.5458C7.0228 23.67 7.1181 23.776 7.23451 23.8546C7.35093 23.9333 7.48488 23.9821 7.62459 23.9968C7.7643 24.0115 7.90548 23.9916 8.03571 23.9389L12 22.3521L15.9643 23.9389C16.0945 23.9916 16.2357 24.0115 16.3754 23.9968C16.5151 23.9821 16.6491 23.9333 16.7655 23.8546C16.8819 23.776 16.9772 23.67 17.043 23.5458C17.1088 23.4217 17.1431 23.2833 17.1429 23.1429V19.7143C17.1429 19.6017 17.1208 19.4902 17.0778 19.3861C17.0348 19.2821 16.9717 19.1875 16.8921 19.1079L15.4286 17.6454V15.6171L22.9746 17.1257C23.099 17.1506 23.2273 17.1476 23.3503 17.1169C23.4733 17.0862 23.588 17.0286 23.686 16.9483C23.7841 16.8679 23.8632 16.7668 23.9174 16.6523C23.9717 16.5377 23.9999 16.4125 24 16.2857V12.8571C24.0001 12.6979 23.9559 12.5418 23.8722 12.4063C23.7886 12.2708 23.6688 12.1613 23.5264 12.09ZM22.2857 15.24L14.7396 13.7314C14.6153 13.7065 14.487 13.7096 14.364 13.7402C14.241 13.7709 14.1263 13.8285 14.0282 13.9089C13.9302 13.9892 13.8511 14.0903 13.7968 14.2049C13.7426 14.3195 13.7144 14.4446 13.7143 14.5714V18C13.7142 18.1126 13.7363 18.2241 13.7793 18.3282C13.8223 18.4322 13.8854 18.5268 13.965 18.6064L15.4286 20.0689V21.8764L12.3214 20.6325C12.1171 20.5508 11.8893 20.5508 11.685 20.6325L8.57143 21.8764V20.0689L10.035 18.6064C10.1146 18.5268 10.1777 18.4322 10.2207 18.3282C10.2637 18.2241 10.2858 18.1126 10.2857 18V14.5714C10.2856 14.4446 10.2574 14.3195 10.2032 14.2049C10.1489 14.0903 10.0698 13.9892 9.97176 13.9089C9.87369 13.8285 9.75901 13.7709 9.63599 13.7402C9.51297 13.7096 9.38468 13.7065 9.26036 13.7314L1.71429 15.24V13.3864L9.81214 9.33857C9.95455 9.26731 10.0743 9.15779 10.1579 9.02229C10.2416 8.88679 10.2858 8.73067 10.2857 8.57143V3.42857C10.2857 2.97391 10.4663 2.53788 10.7878 2.21639C11.1093 1.8949 11.5453 1.71429 12 1.71429C12.4547 1.71429 12.8907 1.8949 13.2122 2.21639C13.5337 2.53788 13.7143 2.97391 13.7143 3.42857V8.57143C13.7142 8.73067 13.7584 8.88679 13.8421 9.02229C13.9257 9.15779 14.0455 9.26731 14.1879 9.33857L22.2857 13.3864V15.24Z" fill="#666666"/>
</svg>