<svg xmlns="http://www.w3.org/2000/svg" width="23" height="22" viewBox="0 0 23 22" fill="none">
  <path d="M3.5 7H6.5V20H1L3.5 7Z" fill="#FF3D73" fill-opacity="0.6"/>
  <path d="M18.5 7H15.5V20H21L18.5 7Z" fill="#FF3D73" fill-opacity="0.6"/>
  <path d="M13.3589 3.22222C13.3589 2.63285 13.1159 2.06762 12.6832 1.65087C12.2506 1.23413 11.6638 1 11.0519 1C10.4401 1 9.85328 1.23413 9.42063 1.65087C8.98799 2.06762 8.74493 2.63285 8.74493 3.22222M19.4264 8.44L21.024 18.44C21.0745 18.7565 21.0534 19.0798 20.9622 19.3877C20.8709 19.6956 20.7117 19.9809 20.4953 20.224C20.279 20.4672 20.0106 20.6624 19.7087 20.7963C19.4067 20.9302 19.0782 20.9997 18.7458 21H3.35806C3.02543 21 2.69672 20.9308 2.39448 20.797C2.09223 20.6632 1.82359 20.468 1.60698 20.2249C1.39037 19.9817 1.23091 19.6963 1.13954 19.3882C1.04816 19.0802 1.02703 18.7567 1.07759 18.44L2.67519 8.44C2.75899 7.9151 3.03518 7.43646 3.45372 7.09078C3.87226 6.7451 4.40549 6.55523 4.95682 6.55556H17.147C17.6982 6.55549 18.2311 6.74548 18.6494 7.09114C19.0677 7.4368 19.3426 7.91529 19.4264 8.44Z" stroke="#666666" stroke-width="2" stroke-linecap="round" stroke-linejoin="round"/>
</svg>