<svg xmlns="http://www.w3.org/2000/svg" width="22" height="22" viewBox="0 0 22 22" fill="none">
  <path d="M1.00391 5C1.00391 3.89543 1.89934 3 3.00391 3H19.0039C20.1085 3 21.0039 3.89543 21.0039 5V9H1.00391V5Z" fill="#FF3D73" fill-opacity="0.6"/>
  <path d="M14.3333 3.10526V1M14.3333 3.10526V5.21053M14.3333 3.10526H9.33333M1 9.42105V18.8947C1 19.4531 1.23413 19.9886 1.65087 20.3834C2.06762 20.7782 2.63285 21 3.22222 21H18.7778C19.3671 21 19.9324 20.7782 20.3491 20.3834C20.7659 19.9886 21 19.4531 21 18.8947V9.42105M1 9.42105H21M1 9.42105V5.21053C1 4.65218 1.23413 4.11669 1.65087 3.72188C2.06762 3.32707 2.63285 3.10526 3.22222 3.10526H5.44444M21 9.42105V5.21053C21 4.65218 20.7659 4.11669 20.3491 3.72188C19.9324 3.32707 19.3671 3.10526 18.7778 3.10526H18.2222M5.44444 1V5.21053" stroke="#666666" stroke-width="2" stroke-linecap="round" stroke-linejoin="round"/>
</svg>