<svg xmlns="http://www.w3.org/2000/svg" width="22" height="22" viewBox="0 0 22 22" fill="none">
  <path d="M11.0039 21C16.5269 21 21.0039 16.523 21.0039 11C21.0039 5.477 16.5269 1 11.0039 1C5.48091 1 1.00391 5.477 1.00391 11C1.00391 16.523 5.48091 21 11.0039 21Z" stroke="#666666" stroke-width="2" stroke-linecap="round" stroke-linejoin="round"/>
  <path d="M14.0078 7.5C13.3228 6.815 12.1168 6.339 11.0078 6.309M11.0078 6.309C9.68781 6.273 8.50781 6.87 8.50781 8.5C8.50781 11.5 14.0078 10 14.0078 13C14.0078 14.711 12.5438 15.446 11.0078 15.391M11.0078 6.309V4.5M8.00781 14C8.65181 14.86 9.85081 15.35 11.0078 15.391M11.0078 15.391V17.5" stroke="#FF3D73" stroke-opacity="0.6" stroke-width="2" stroke-linecap="round" stroke-linejoin="round"/>
</svg>