<svg xmlns="http://www.w3.org/2000/svg" width="14" height="9" viewBox="0 0 14 9" fill="none">
  <path d="M7 3.47581C7 3.06317 7.476 2.65054 8.42867 2.65054C8.93381 2.65054 9.41827 2.52633 9.77547 2.30525C10.1327 2.08416 10.3333 1.7843 10.3333 1.47164V1.20632M4.33333 3.47581V3.26949C4.33333 2.94118 4.54405 2.62631 4.91912 2.39416C5.29419 2.16201 5.8029 2.03159 6.33333 2.03159C6.68695 2.03159 7.02609 1.94464 7.27614 1.78987C7.52619 1.6351 7.66667 1.42519 7.66667 1.20632V1M10.3333 4.54866V5.95162C10.3333 6.60824 9.91191 7.23797 9.16176 7.70228C8.41161 8.16658 7.3942 8.42743 6.33333 8.42743H5C3.93913 8.42743 2.92172 8.16658 2.17157 7.70228C1.42143 7.23797 1 6.60824 1 5.95162V4.54866C1 4.483 1.04214 4.42002 1.11716 4.37359C1.19217 4.32716 1.29391 4.30108 1.4 4.30108H9.93333C10.0394 4.30108 10.1412 4.32716 10.2162 4.37359C10.2912 4.42002 10.3333 4.483 10.3333 4.54866Z" stroke="#FF3D73" stroke-linecap="round" stroke-linejoin="round"/>
  <path d="M9.66797 4.30127H11.3346C11.7767 4.30127 12.2006 4.40995 12.5131 4.60341C12.8257 4.79687 13.0013 5.05926 13.0013 5.33286C13.0013 5.60645 12.8257 5.86884 12.5131 6.0623C12.2006 6.25576 11.7767 6.36444 11.3346 6.36444H10.3346" stroke="#FF3D73" stroke-linecap="round" stroke-linejoin="round"/>
</svg>