<svg xmlns="http://www.w3.org/2000/svg" width="24" height="24" viewBox="0 0 24 24" fill="none">
<path d="M12 12.5C12.1326 12.5 12.2598 12.4473 12.3536 12.3536C12.4473 12.2598 12.5 12.1326 12.5 12C12.5 11.8674 12.4473 11.7402 12.3536 11.6464C12.2598 11.5527 12.1326 11.5 12 11.5C11.8674 11.5 11.7402 11.5527 11.6464 11.6464C11.5527 11.7402 11.5 11.8674 11.5 12C11.5 12.1326 11.5527 12.2598 11.6464 12.3536C11.7402 12.4473 11.8674 12.5 12 12.5ZM12 20.5C12.1326 20.5 12.2598 20.4473 12.3536 20.3536C12.4473 20.2598 12.5 20.1326 12.5 20C12.5 19.8674 12.4473 19.7402 12.3536 19.6464C12.2598 19.5527 12.1326 19.5 12 19.5C11.8674 19.5 11.7402 19.5527 11.6464 19.6464C11.5527 19.7402 11.5 19.8674 11.5 20C11.5 20.1326 11.5527 20.2598 11.6464 20.3536C11.7402 20.4473 11.8674 20.5 12 20.5ZM12 4.5C12.1326 4.5 12.2598 4.44732 12.3536 4.35355C12.4473 4.25979 12.5 4.13261 12.5 4C12.5 3.86739 12.4473 3.74021 12.3536 3.64645C12.2598 3.55268 12.1326 3.5 12 3.5C11.8674 3.5 11.7402 3.55268 11.6464 3.64645C11.5527 3.74021 11.5 3.86739 11.5 4C11.5 4.13261 11.5527 4.25979 11.6464 4.35355C11.7402 4.44732 11.8674 4.5 12 4.5Z" fill="#222222" stroke="#222222" stroke-width="1.5" stroke-linecap="round" stroke-linejoin="round"/>
</svg>
