<svg width="24" height="24" viewBox="0 0 24 24" fill="none" xmlns="http://www.w3.org/2000/svg">
<path d="M12.6091 14.4637L8.91858 15.128L9.53367 11.3882L16.5826 4.36389C16.697 4.24858 16.833 4.15706 16.983 4.09461C17.1329 4.03215 17.2937 4 17.4561 4C17.6185 4 17.7792 4.03215 17.9292 4.09461C18.0791 4.15706 18.2151 4.24858 18.3295 4.36389L19.6335 5.66788C19.7488 5.78224 19.8403 5.9183 19.9028 6.06821C19.9652 6.21812 19.9974 6.37891 19.9974 6.54131C19.9974 6.70371 19.9652 6.8645 19.9028 7.01441C19.8403 7.16432 19.7488 7.30038 19.6335 7.41474L12.6091 14.4637Z" stroke="#444444" stroke-linecap="round" stroke-linejoin="round"/>
<path d="M18.1471 15.0799V18.7704C18.1471 19.0967 18.0175 19.4096 17.7868 19.6403C17.5561 19.871 17.2432 20.0006 16.9169 20.0006H5.23018C4.90392 20.0006 4.59102 19.871 4.36031 19.6403C4.12961 19.4096 4 19.0967 4 18.7704V7.0837C4 6.75743 4.12961 6.44453 4.36031 6.21383C4.59102 5.98312 4.90392 5.85352 5.23018 5.85352H8.92074" stroke="#444444" stroke-linecap="round" stroke-linejoin="round"/>
</svg>
