<svg xmlns="http://www.w3.org/2000/svg" width="24" height="24" viewBox="0 0 24 24" fill="none">
  <path d="M12.6085 14.4637L8.91797 15.128L9.53306 11.3882L16.582 4.36389C16.6964 4.24858 16.8324 4.15706 16.9823 4.09461C17.1323 4.03215 17.293 4 17.4554 4C17.6178 4 17.7786 4.03215 17.9285 4.09461C18.0785 4.15706 18.2145 4.24858 18.3289 4.36389L19.6329 5.66788C19.7482 5.78224 19.8397 5.9183 19.9021 6.06821C19.9646 6.21812 19.9968 6.37891 19.9968 6.54131C19.9968 6.70371 19.9646 6.8645 19.9021 7.01441C19.8397 7.16432 19.7482 7.30038 19.6329 7.41474L12.6085 14.4637Z" stroke="#444444" stroke-linecap="round" stroke-linejoin="round"/>
  <path d="M18.1471 15.0794V18.77C18.1471 19.0962 18.0175 19.4091 17.7868 19.6398C17.5561 19.8705 17.2432 20.0001 16.9169 20.0001H5.23018C4.90392 20.0001 4.59102 19.8705 4.36031 19.6398C4.12961 19.4091 4 19.0962 4 18.77V7.08321C4 6.75695 4.12961 6.44404 4.36031 6.21334C4.59102 5.98264 4.90392 5.85303 5.23018 5.85303H8.92074" stroke="#444444" stroke-linecap="round" stroke-linejoin="round"/>
</svg>