<svg width="24" height="24" viewBox="0 0 24 24" fill="none" xmlns="http://www.w3.org/2000/svg">
<g id="Group 26086629">
<circle id="Ellipse 105" cx="12" cy="12" r="12" fill="white"/>
<path id="Vector" fill-rule="evenodd" clip-rule="evenodd" d="M11.9997 7.84906C12.6846 7.21311 13.5834 6.85906 14.517 6.85742C15.5262 6.85742 16.4898 7.27354 17.195 8.00613C17.8967 8.73931 18.2876 9.71657 18.2855 10.7326C18.2876 11.7485 17.8967 12.7258 17.195 13.459C16.7296 13.9425 16.2647 14.4377 15.7975 14.9347C14.8479 15.9451 13.8884 16.9666 12.8915 17.9284L12.8897 17.9307C12.6422 18.1657 12.3121 18.2932 11.9713 18.2857C11.6304 18.2781 11.3064 18.136 11.0695 17.8903L6.80389 13.459C5.35085 11.9487 5.35085 9.51645 6.80389 8.00672C7.47535 7.30104 8.39709 6.88883 9.36955 6.85933C10.342 6.82982 11.2869 7.18539 11.9997 7.84906Z" fill="#CCCCCC"/>
</g>
</svg>
