<svg xmlns="http://www.w3.org/2000/svg" width="24" height="24" viewBox="0 0 24 24" fill="none">
  <path d="M17 20.9998H7C5.93913 20.9998 4.92172 20.5784 4.17157 19.8282C3.42143 19.0781 3 18.0607 3 16.9998V10.7078C2.99999 10.02 3.17732 9.34386 3.51487 8.74461C3.85242 8.14536 4.33879 7.64326 4.927 7.28682L9.927 4.25682C10.5521 3.87801 11.2691 3.67773 12 3.67773C12.7309 3.67773 13.4479 3.87801 14.073 4.25682L19.073 7.28682C19.6611 7.64317 20.1473 8.14511 20.4849 8.74417C20.8224 9.34324 20.9998 10.0192 21 10.7068V16.9998C21 18.0607 20.5786 19.0781 19.8284 19.8282C19.0783 20.5784 18.0609 20.9998 17 20.9998ZM9 16.9998H15H9Z" fill="url(#paint0_linear_1074_6579)"/>
  <path d="M9 16.9998H15M17 20.9998H7C5.93913 20.9998 4.92172 20.5784 4.17157 19.8282C3.42143 19.0781 3 18.0607 3 16.9998V10.7078C2.99999 10.02 3.17732 9.34386 3.51487 8.74461C3.85242 8.14536 4.33879 7.64326 4.927 7.28682L9.927 4.25682C10.5521 3.87801 11.2691 3.67773 12 3.67773C12.7309 3.67773 13.4479 3.87801 14.073 4.25682L19.073 7.28682C19.6611 7.64317 20.1473 8.14511 20.4849 8.74417C20.8224 9.34324 20.9998 10.0192 21 10.7068V16.9998C21 18.0607 20.5786 19.0781 19.8284 19.8282C19.0783 20.5784 18.0609 20.9998 17 20.9998Z" stroke="white" stroke-width="1.5" stroke-linecap="round" stroke-linejoin="round"/>
  <defs>
    <linearGradient id="paint0_linear_1074_6579" x1="3" y1="6.5" x2="18.5" y2="18.5" gradientUnits="userSpaceOnUse">
      <stop stop-color="#FF8194"/>
      <stop offset="1" stop-color="#FE2677"/>
    </linearGradient>
  </defs>
</svg>