<svg xmlns="http://www.w3.org/2000/svg" width="164" height="240" viewBox="0 0 164 240" fill="none">
  <path d="M0 0H144.8C151.521 0 154.881 0 157.448 1.30792C159.706 2.4584 161.542 4.29417 162.692 6.55211C164 9.11905 164 12.4794 164 19.2V220.8C164 227.521 164 230.881 162.692 233.448C161.542 235.706 159.706 237.542 157.448 238.692C154.881 240 151.521 240 144.8 240H0V0Z" fill="#E6E6E6"/>
  <mask id="mask0_808_6451" style="mask-type:alpha" maskUnits="userSpaceOnUse" x="0" y="0" width="164" height="240">
    <path d="M0 0H144.8C151.521 0 154.881 0 157.448 1.30792C159.706 2.4584 161.542 4.29417 162.692 6.55211C164 9.11905 164 12.4794 164 19.2V220.8C164 227.521 164 230.881 162.692 233.448C161.542 235.706 159.706 237.542 157.448 238.692C154.881 240 151.521 240 144.8 240H0V0Z" fill="#E8FFE7"/>
  </mask>
  <g mask="url(#mask0_808_6451)">
    <g style="mix-blend-mode:multiply">
      <path d="M149.436 192.649C149.436 222.905 125.067 247.432 95.0067 247.432C64.9463 247.432 40.5775 222.905 40.5775 192.649C40.5775 162.394 64.9463 137.867 95.0067 137.867C125.067 137.867 149.436 162.394 149.436 192.649Z" fill="#E6E6E6"/>
      <path d="M90.1299 186.88C93.1595 186.88 95.6154 184.419 95.6154 181.382C95.6154 178.346 93.1595 175.885 90.1299 175.885C87.1004 175.885 84.6445 178.346 84.6445 181.382C84.6445 184.419 87.1004 186.88 90.1299 186.88Z" fill="#aaa"/>
      <path fill-rule="evenodd" clip-rule="evenodd" d="M84.4413 178.262C84.5981 178.725 85.1023 178.974 85.5675 178.818L94.314 175.883C94.7792 175.727 95.0303 175.225 94.8736 174.762C94.7168 174.298 94.2126 174.049 93.7474 174.206L84.9998 177.14C84.5346 177.296 84.2845 177.798 84.4413 178.262Z" fill="#aaa"/>
      <path d="M67.4493 186.88C64.4198 186.88 61.9639 184.419 61.9639 181.382C61.9639 178.346 64.4198 175.885 67.4493 175.885C70.4788 175.885 72.9347 178.346 72.9347 181.382C72.9347 184.419 70.4788 186.88 67.4493 186.88Z" fill="#aaa"/>
      <path fill-rule="evenodd" clip-rule="evenodd" d="M73.1379 178.262C72.9812 178.725 72.4769 178.974 72.0117 178.818L63.2652 175.883C62.8 175.727 62.5489 175.225 62.7057 174.762C62.8624 174.298 63.3666 174.049 63.8318 174.206L72.5794 177.14C73.0446 177.296 73.2947 177.798 73.1379 178.262Z" fill="#aaa"/>
      <path fill-rule="evenodd" clip-rule="evenodd" d="M85.0031 191.565C85.2387 191.999 85.081 192.543 84.6509 192.779L78.4409 196.182C77.0818 196.926 75.3764 196.347 74.7354 194.922L73.5051 192.187C73.3023 191.736 73.4998 191.207 73.9464 191.004C74.3929 190.801 74.9193 191.003 75.1222 191.454L76.3525 194.188C76.5661 194.663 77.1346 194.856 77.5876 194.608L83.7976 191.205C84.2277 190.969 84.7675 191.13 85.0031 191.565Z" fill="#aaa"/>
      <path d="M99.801 123C58.2697 123 24.6035 156.826 24.6035 198.55C24.6035 225.801 38.9633 249.68 60.4964 262.971C54.3143 271.501 49.0177 281.475 45.217 288.548L44.312 290.015C41.5693 285.364 36.5233 282.245 30.7514 282.245C22.0529 282.245 15 289.331 15 298.07C15 298.288 15.0049 298.505 15.0146 298.721C14.8356 303.134 16.8149 307.526 20.6238 310.262L25.4402 313.723C28.6208 316.007 31.9022 318.148 35.2749 320.135L41.0793 323.556C46.6152 326.818 53.7104 325.347 57.5063 320.146L66.5483 307.757L73.7037 300.172C80.8071 292.643 89.5138 286.371 99.3517 281.7L114.761 274.382C119.019 272.361 123.343 270.484 127.716 268.727C155.425 257.59 175 230.37 175 198.554C175 156.827 141.332 123.003 99.8026 123.003L99.801 123ZM91.4035 230.191C68.2378 230.191 49.4588 211.324 49.4588 188.05C49.4588 164.775 68.2378 145.908 91.4035 145.908C114.569 145.908 133.348 164.775 133.348 188.05C133.348 211.324 114.569 230.191 91.4035 230.191Z" fill="#ccc"/>
    </g>
  </g>
</svg>