<svg xmlns="http://www.w3.org/2000/svg" width="48" height="44" viewBox="0 0 48 44" fill="none">
<path fill-rule="evenodd" clip-rule="evenodd" d="M24 36.8487L24 0C23.9998 0 23.9997 0 23.9995 0C22.9479 0.000180165 21.8964 0.544941 21.4196 1.63428L16.1187 13.6056L2.57182 14.7085C0.103656 14.8968 -0.906049 17.856 0.973124 19.4163L11.2665 27.9711L8.18129 40.6687C7.62035 42.9823 10.2287 44.8116 12.3603 43.5741L24 36.8487Z" fill="#FFDB6D"/>
<path fill-rule="evenodd" clip-rule="evenodd" d="M24 36.8487L24 0C24.0002 0 24.0003 0 24.0005 0C25.0521 0.000180165 26.1036 0.544941 26.5804 1.63428L31.8813 13.6056L45.4282 14.7085C47.8963 14.8968 48.906 17.856 47.0269 19.4163L36.7335 27.9711L39.8187 40.6687C40.3797 42.9823 37.7713 44.8116 35.6397 43.5741L24 36.8487Z" fill="#EEEEEE"/>
</svg> 