<svg xmlns="http://www.w3.org/2000/svg" width="59" height="34" viewBox="0 0 59 34" fill="none">
  <path d="M47.8673 11.5233L47.937 12.4482H48.8645H55.6857H56.6923L56.6857 11.4416C56.6654 8.34665 55.5432 5.70559 53.4804 3.84636C51.4271 1.99568 48.5327 1 45.0998 1C41.7416 1 38.7871 1.98487 36.6589 3.78536C34.5174 5.59714 33.2706 8.19003 33.2902 11.2497C33.291 13.7453 34.1032 15.7705 35.6222 17.3171C37.1181 18.8402 39.2254 19.8247 41.6992 20.4154L41.7005 20.4158L44.4185 21.0611C44.4189 21.0612 44.4194 21.0613 44.4198 21.0614C45.9061 21.4192 46.7696 21.7673 47.2554 22.1169C47.6534 22.4033 47.7748 22.6666 47.7895 23.0372C47.7722 23.485 47.5856 23.8429 47.2111 24.1173C46.8016 24.4174 46.1003 24.6608 45.0252 24.6608C43.7931 24.6608 42.9165 24.3413 42.3479 23.8435C41.7922 23.3571 41.4121 22.5972 41.3651 21.4607L41.3255 20.502H40.366H33.582H32.5716L32.5821 21.5124C32.6216 25.3228 33.8468 28.2491 36.1218 30.2045C38.3731 32.1396 41.5092 33 45.1371 33C48.6908 33 51.6642 32.1599 53.7729 30.4439C55.9097 28.705 57.0381 26.164 57.0584 23.0428L57.0585 23.0354L57.0584 23.028C57.0381 20.5855 56.3202 18.4447 54.7489 16.7368C53.1953 15.0481 50.8928 13.8757 47.8688 13.1812L45.643 12.6186L45.6309 12.6156L45.6188 12.6128C44.4115 12.3396 43.6375 12.024 43.1847 11.6835C42.792 11.3883 42.6607 11.098 42.6702 10.7071C42.6817 10.2939 42.8283 10.0101 43.1135 9.79905C43.4367 9.55979 44.0441 9.33917 45.0998 9.33917C46.1673 9.33917 46.8071 9.58866 47.1849 9.91174C47.5495 10.2236 47.8069 10.7211 47.8673 11.5233Z" fill="#FF2477" stroke="white" stroke-width="2"/>
  <path d="M11.9789 2.14189L11.7784 1.4043H11.014H3H1.64655L2.04411 2.69804L11.0272 31.9309L11.2443 32.6371H11.9831H21.6372H22.3769L22.5934 31.9298L31.5392 2.69692L31.9348 1.4043H30.583H22.569H21.8046L21.6041 2.14189L16.7915 19.8391L11.9789 2.14189Z" fill="#FF2477" stroke="white" stroke-width="2"/>
</svg>